<svg width="30" height="33" viewBox="0 0 30 33" fill="none" xmlns="http://www.w3.org/2000/svg">
<path fill-rule="evenodd" clip-rule="evenodd" d="M20.7735 11.7971C21.0909 12.1047 21.273 12.5259 21.2799 12.9678C21.2868 13.4098 21.1178 13.8364 20.8102 14.1537L14.0935 21.0854C13.9117 21.2737 13.6938 21.4234 13.4528 21.5257C13.2118 21.6279 12.9528 21.6806 12.691 21.6806C12.4293 21.6806 12.1702 21.6279 11.9292 21.5257C11.6883 21.4234 11.4704 21.2737 11.2885 21.0854L8.41685 18.1221C8.26254 17.9653 8.14078 17.7796 8.05859 17.5756C7.9764 17.3716 7.93541 17.1533 7.93798 16.9333C7.94055 16.7134 7.98663 16.4961 8.07356 16.2941C8.1605 16.092 8.28656 15.9092 8.4445 15.7561C8.60243 15.603 8.78911 15.4827 8.99376 15.4021C9.19841 15.3215 9.417 15.2822 9.63692 15.2865C9.85683 15.2907 10.0737 15.3385 10.2751 15.427C10.4765 15.5155 10.6583 15.643 10.8102 15.8021L12.6902 17.7421L18.4169 11.8337C18.7245 11.5164 19.1456 11.3342 19.5876 11.3274C20.0295 11.3205 20.4561 11.4894 20.7735 11.7971Z" fill="#E5B122"/>
<path fill-rule="evenodd" clip-rule="evenodd" d="M13.0485 0.260382C14.063 -0.0867939 15.1641 -0.0867939 16.1785 0.260382L25.9385 3.58705C26.9715 3.94022 27.8551 4.63155 28.4464 5.5492C29.0377 6.46685 29.3021 7.55714 29.1969 8.64371L27.9335 21.6304C27.8672 22.3197 27.6536 22.9867 27.3071 23.5862C26.9606 24.1857 26.4893 24.7038 25.9252 25.1054L17.3952 31.2004C16.5846 31.779 15.6154 32.0941 14.6195 32.1027C13.6235 32.1114 12.6491 31.8132 11.8285 31.2487L3.36686 25.4237C2.78369 25.0224 2.29543 24.4983 1.93639 23.8882C1.57734 23.278 1.35622 22.5967 1.28853 21.892L0.0218644 8.63705C-0.0815819 7.55114 0.184064 6.46206 0.775892 5.54574C1.36772 4.62942 2.25117 3.93937 3.28353 3.58705L13.0485 0.260382ZM15.2002 3.12705C14.8196 2.99851 14.4074 2.99851 14.0269 3.12705L4.26186 6.45705C3.87455 6.5888 3.54305 6.84741 3.32103 7.19103C3.09901 7.53465 2.99947 7.94315 3.03853 8.35038L4.30686 21.6054C4.35686 22.1387 4.64353 22.6254 5.08686 22.9304L13.5469 28.7537C14.1769 29.187 15.0135 29.1804 15.6352 28.737L24.1669 22.642C24.3772 22.4903 24.553 22.2957 24.6826 22.071C24.8121 21.8464 24.8926 21.5968 24.9185 21.3387L26.1835 8.35205C26.2234 7.94427 26.1242 7.53501 25.9021 7.1907C25.6801 6.84639 25.3481 6.58726 24.9602 6.45538L15.2002 3.12705Z" fill="#E5B122"/>
</svg>
