<svg width="35" height="30" viewBox="0 0 35 30" fill="none" xmlns="http://www.w3.org/2000/svg">
<path fill-rule="evenodd" clip-rule="evenodd" d="M6.03678 0.537142C6.38058 0.193445 6.84681 0.000366211 7.33294 0.000366211C7.81908 0.000366211 8.28531 0.193445 8.62911 0.537142L14.1291 6.03714C14.4631 6.38291 14.6479 6.84602 14.6437 7.32671C14.6395 7.8074 14.4467 8.26723 14.1068 8.60714C13.7669 8.94706 13.307 9.13987 12.8263 9.14404C12.3456 9.14822 11.8825 8.96343 11.5368 8.62947L7.33294 4.42564L3.12911 8.62947C2.78334 8.96343 2.32023 9.14822 1.83954 9.14404C1.35885 9.13987 0.899023 8.94706 0.559108 8.60714C0.219193 8.26723 0.0263831 7.8074 0.022206 7.32671C0.0180289 6.84602 0.202819 6.38291 0.536775 6.03714L6.03678 0.537142ZM0.536775 20.7038C0.880576 20.3601 1.34681 20.167 1.83294 20.167C2.31908 20.167 2.78531 20.3601 3.12911 20.7038L7.33294 24.9076L11.5368 20.7038C11.8825 20.3699 12.3456 20.1851 12.8263 20.1892C13.307 20.1934 13.7669 20.3862 14.1068 20.7261C14.4467 21.0661 14.6395 21.5259 14.6437 22.0066C14.6479 22.4873 14.4631 22.9504 14.1291 23.2961L8.62911 28.7961C8.28531 29.1398 7.81908 29.3329 7.33294 29.3329C6.84681 29.3329 6.38058 29.1398 6.03678 28.7961L0.536775 23.2961C0.193078 22.9523 0 22.4861 0 22C0 21.5138 0.193078 21.0476 0.536775 20.7038Z" fill="#FEC11A"/>
<path fill-rule="evenodd" clip-rule="evenodd" d="M7.33333 0C7.81956 0 8.28588 0.193155 8.6297 0.536971C8.97351 0.880788 9.16667 1.3471 9.16667 1.83333V27.5C9.16667 27.9862 8.97351 28.4525 8.6297 28.7964C8.28588 29.1402 7.81956 29.3333 7.33333 29.3333C6.8471 29.3333 6.38079 29.1402 6.03697 28.7964C5.69315 28.4525 5.5 27.9862 5.5 27.5V1.83333C5.5 1.3471 5.69315 0.880788 6.03697 0.536971C6.38079 0.193155 6.8471 0 7.33333 0ZM18.3333 3.66667C18.3333 3.18044 18.5265 2.71412 18.8703 2.3703C19.2141 2.02649 19.6804 1.83333 20.1667 1.83333H33C33.4862 1.83333 33.9525 2.02649 34.2964 2.3703C34.6402 2.71412 34.8333 3.18044 34.8333 3.66667C34.8333 4.1529 34.6402 4.61921 34.2964 4.96303C33.9525 5.30685 33.4862 5.5 33 5.5H20.1667C19.6804 5.5 19.2141 5.30685 18.8703 4.96303C18.5265 4.61921 18.3333 4.1529 18.3333 3.66667ZM18.3333 14.6667C18.3333 14.1804 18.5265 13.7141 18.8703 13.3703C19.2141 13.0265 19.6804 12.8333 20.1667 12.8333H33C33.4862 12.8333 33.9525 13.0265 34.2964 13.3703C34.6402 13.7141 34.8333 14.1804 34.8333 14.6667C34.8333 15.1529 34.6402 15.6192 34.2964 15.963C33.9525 16.3068 33.4862 16.5 33 16.5H20.1667C19.6804 16.5 19.2141 16.3068 18.8703 15.963C18.5265 15.6192 18.3333 15.1529 18.3333 14.6667ZM18.3333 25.6667C18.3333 25.1804 18.5265 24.7141 18.8703 24.3703C19.2141 24.0265 19.6804 23.8333 20.1667 23.8333H33C33.4862 23.8333 33.9525 24.0265 34.2964 24.3703C34.6402 24.7141 34.8333 25.1804 34.8333 25.6667C34.8333 26.1529 34.6402 26.6192 34.2964 26.963C33.9525 27.3068 33.4862 27.5 33 27.5H20.1667C19.6804 27.5 19.2141 27.3068 18.8703 26.963C18.5265 26.6192 18.3333 26.1529 18.3333 25.6667Z" fill="#FEC11A"/>
</svg>
