<svg width="28" height="28" viewBox="0 0 28 28" fill="none" xmlns="http://www.w3.org/2000/svg">
<path d="M21 8H27C27.2652 8 27.5196 7.89464 27.7071 7.70711C27.8946 7.51957 28 7.26522 28 7V1C28 0.734784 27.8946 0.48043 27.7071 0.292893C27.5196 0.105357 27.2652 0 27 0H21C20.7348 0 20.4804 0.105357 20.2929 0.292893C20.1054 0.48043 20 0.734784 20 1V3H18C17.7348 3 17.4804 3.10536 17.2929 3.29289C17.1054 3.48043 17 3.73478 17 4V13H15V8C14.9999 7.73481 14.8946 7.48049 14.707 7.293L11.707 4.293C11.5195 4.10545 11.2652 4.00006 11 4H1C0.734784 4 0.48043 4.10536 0.292893 4.29289C0.105357 4.48043 0 4.73478 0 5V23C0 23.2652 0.105357 23.5196 0.292893 23.7071C0.48043 23.8946 0.734784 24 1 24H14C14.2652 24 14.5196 23.8946 14.7071 23.7071C14.8946 23.5196 15 23.2652 15 23V15H17V24C17 24.2652 17.1054 24.5196 17.2929 24.7071C17.4804 24.8946 17.7348 25 18 25H20V27C20 27.2652 20.1054 27.5196 20.2929 27.7071C20.4804 27.8946 20.7348 28 21 28H27C27.2652 28 27.5196 27.8946 27.7071 27.7071C27.8946 27.5196 28 27.2652 28 27V21C28 20.7348 27.8946 20.4804 27.7071 20.2929C27.5196 20.1054 27.2652 20 27 20H21C20.7348 20 20.4804 20.1054 20.2929 20.2929C20.1054 20.4804 20 20.7348 20 21V23H19V15H20V17C20 17.2652 20.1054 17.5196 20.2929 17.7071C20.4804 17.8946 20.7348 18 21 18H27C27.2652 18 27.5196 17.8946 27.7071 17.7071C27.8946 17.5196 28 17.2652 28 17V11C28 10.7348 27.8946 10.4804 27.7071 10.2929C27.5196 10.1054 27.2652 10 27 10H21C20.7348 10 20.4804 10.1054 20.2929 10.2929C20.1054 10.4804 20 10.7348 20 11V13H19V5H20V7C20 7.26522 20.1054 7.51957 20.2929 7.70711C20.4804 7.89464 20.7348 8 21 8ZM11.5 19H3.5C3.36739 19 3.24021 18.9473 3.14645 18.8536C3.05268 18.7598 3 18.6326 3 18.5C3 18.3674 3.05268 18.2402 3.14645 18.1464C3.24021 18.0527 3.36739 18 3.5 18H11.5C11.6326 18 11.7598 18.0527 11.8536 18.1464C11.9473 18.2402 12 18.3674 12 18.5C12 18.6326 11.9473 18.7598 11.8536 18.8536C11.7598 18.9473 11.6326 19 11.5 19ZM11.5 16H3.5C3.36739 16 3.24021 15.9473 3.14645 15.8536C3.05268 15.7598 3 15.6326 3 15.5C3 15.3674 3.05268 15.2402 3.14645 15.1464C3.24021 15.0527 3.36739 15 3.5 15H11.5C11.6326 15 11.7598 15.0527 11.8536 15.1464C11.9473 15.2402 12 15.3674 12 15.5C12 15.6326 11.9473 15.7598 11.8536 15.8536C11.7598 15.9473 11.6326 16 11.5 16ZM11.5 13H3.5C3.36739 13 3.24021 12.9473 3.14645 12.8536C3.05268 12.7598 3 12.6326 3 12.5C3 12.3674 3.05268 12.2402 3.14645 12.1464C3.24021 12.0527 3.36739 12 3.5 12H11.5C11.6326 12 11.7598 12.0527 11.8536 12.1464C11.9473 12.2402 12 12.3674 12 12.5C12 12.6326 11.9473 12.7598 11.8536 12.8536C11.7598 12.9473 11.6326 13 11.5 13ZM11.5 10H3.5C3.36739 10 3.24021 9.94732 3.14645 9.85355C3.05268 9.75979 3 9.63261 3 9.5C3 9.36739 3.05268 9.24021 3.14645 9.14645C3.24021 9.05268 3.36739 9 3.5 9H11.5C11.6326 9 11.7598 9.05268 11.8536 9.14645C11.9473 9.24021 12 9.36739 12 9.5C12 9.63261 11.9473 9.75979 11.8536 9.85355C11.7598 9.94732 11.6326 10 11.5 10Z" fill="white"/>
</svg>
